<svg width="41" height="30" viewBox="0 0 41 30" fill="none" xmlns="http://www.w3.org/2000/svg">
<path d="M2.04998 12.0006C0.94576 11.973 0.0282302 12.8458 0.000624701 13.95C-0.0269808 15.0542 0.845791 15.9718 1.95002 15.9994L2.04998 12.0006ZM11 18L9.07695 18.5494L9.07695 18.5494L11 18ZM14.9444 23.5L16.8968 23.9339L16.8968 23.9339L14.9444 23.5ZM16.9444 16.5L14.9921 16.0661L14.9921 16.0661L16.9444 16.5ZM1.95002 15.9994C3.94882 16.0493 5.59677 16.0738 6.91435 16.4729C8.055 16.8184 8.74142 17.3751 9.07695 18.5494L12.923 17.4506C12.1335 14.6873 10.2081 13.2912 8.07402 12.6447C6.1169 12.0518 3.82737 12.0451 2.04998 12.0006L1.95002 15.9994ZM9.07695 18.5494C9.27129 19.2296 9.49982 19.9206 9.72035 20.5817C9.94522 21.2557 10.162 21.8994 10.3567 22.5436C10.7499 23.8452 11 24.9867 11 26H15C15 24.3895 14.6116 22.7965 14.1857 21.3867C13.9707 20.6752 13.7327 19.9691 13.5148 19.3158C13.2925 18.6496 13.0903 18.0358 12.923 17.4506L9.07695 18.5494ZM11 26C11 26.4161 11.0246 26.8983 11.1498 27.3364C11.2109 27.5502 11.3419 27.9238 11.6458 28.2744C12.0052 28.689 12.5894 29.0377 13.323 29.0172C13.9439 28.9998 14.3848 28.7219 14.5933 28.5666C14.8223 28.396 14.9903 28.2085 15.0991 28.0745C15.3191 27.8036 15.5 27.4965 15.6375 27.2397C16.1733 26.2393 16.7252 24.7063 16.8968 23.9339L12.9921 23.0661C12.903 23.4672 12.4826 24.658 12.1114 25.3512C12.0222 25.5178 11.9804 25.5697 11.9939 25.5531C11.9995 25.5462 12.0683 25.4597 12.2036 25.3588C12.3185 25.2732 12.6714 25.0338 13.2113 25.0187C13.8639 25.0005 14.3742 25.3151 14.6684 25.6544C14.9071 25.9298 14.9814 26.1868 14.9959 26.2377C15.028 26.3499 15 26.3208 15 26H11ZM16.8968 23.9339C17.1426 22.828 17.4747 21.7893 17.8422 20.6412C18.2028 19.5151 18.5961 18.2869 18.8968 16.9339L14.9921 16.0661C14.7366 17.2156 14.3987 18.2782 14.0327 19.4217C13.6736 20.5434 13.2838 21.7534 12.9921 23.0661L16.8968 23.9339ZM18.8968 16.9339C19.2854 15.1853 20.1663 11.9531 21.3992 9.20214C22.0195 7.81794 22.6803 6.66699 23.3386 5.89369C24.031 5.08037 24.4425 5 24.5556 5V1C22.696 1 21.271 2.15187 20.2929 3.30073C19.2808 4.48961 18.4371 6.03078 17.749 7.56632C16.3649 10.6548 15.4128 14.1727 14.9921 16.0661L18.8968 16.9339ZM24.5556 5C27.3032 5 30.1274 4.74005 32.8685 4.49185C35.6433 4.24059 38.3448 4 41 4V0C38.1347 0 35.2547 0.25941 32.5077 0.508149C29.727 0.759948 27.0893 1 24.5556 1V5Z" fill="black"/>
</svg>
